<svg viewBox="0 0 330 200" xmlns="http://www.w3.org/2000/svg"><g><g><g><g><g><line x1="51.5625" y1="177" x2="46.5625" y2="177" style="visibility: inherit;" fill="rgb(0, 0, 0)" stroke="rgb(204, 204, 204)" stroke-width="1px"></line><line x1="51.5625" y1="164.35714285714286" x2="46.5625" y2="164.35714285714286" style="visibility: inherit;" fill="rgb(0, 0, 0)" stroke="rgb(204, 204, 204)" stroke-width="1px"></line><line x1="51.5625" y1="151.71428571428572" x2="46.5625" y2="151.71428571428572" style="visibility: inherit;" fill="rgb(0, 0, 0)" stroke="rgb(204, 204, 204)" stroke-width="1px"></line><line x1="51.5625" y1="139.07142857142856" x2="46.5625" y2="139.07142857142856" style="visibility: inherit;" fill="rgb(0, 0, 0)" stroke="rgb(204, 204, 204)" stroke-width="1px"></line><line x1="51.5625" y1="126.42857142857143" x2="46.5625" y2="126.42857142857143" style="visibility: inherit;" fill="rgb(0, 0, 0)" stroke="rgb(204, 204, 204)" stroke-width="1px"></line><line x1="51.5625" y1="113.78571428571428" x2="46.5625" y2="113.78571428571428" style="visibility: inherit;" fill="rgb(0, 0, 0)" stroke="rgb(204, 204, 204)" stroke-width="1px"></line><line x1="51.5625" y1="101.14285714285714" x2="46.5625" y2="101.14285714285714" style="visibility: inherit;" fill="rgb(0, 0, 0)" stroke="rgb(204, 204, 204)" stroke-width="1px"></line><line x1="51.5625" y1="88.5" x2="46.5625" y2="88.5" style="visibility: inherit;" fill="rgb(0, 0, 0)" stroke="rgb(204, 204, 204)" stroke-width="1px"></line><line x1="51.5625" y1="75.85714285714286" x2="46.5625" y2="75.85714285714286" style="visibility: inherit;" fill="rgb(0, 0, 0)" stroke="rgb(204, 204, 204)" stroke-width="1px"></line><line x1="51.5625" y1="63.21428571428571" x2="46.5625" y2="63.21428571428571" style="visibility: inherit;" fill="rgb(0, 0, 0)" stroke="rgb(204, 204, 204)" stroke-width="1px"></line><line x1="51.5625" y1="50.57142857142857" x2="46.5625" y2="50.57142857142857" style="visibility: inherit;" fill="rgb(0, 0, 0)" stroke="rgb(204, 204, 204)" stroke-width="1px"></line><line x1="51.5625" y1="37.92857142857143" x2="46.5625" y2="37.92857142857143" style="visibility: inherit;" fill="rgb(0, 0, 0)" stroke="rgb(204, 204, 204)" stroke-width="1px"></line><line x1="51.5625" y1="25.285714285714295" x2="46.5625" y2="25.285714285714295" style="visibility: inherit;" fill="rgb(0, 0, 0)" stroke="rgb(204, 204, 204)" stroke-width="1px"></line><line x1="51.5625" y1="12.642857142857137" x2="46.5625" y2="12.642857142857137" style="visibility: inherit;" fill="rgb(0, 0, 0)" stroke="rgb(204, 204, 204)" stroke-width="1px"></line><line x1="51.5625" y1="0" x2="46.5625" y2="0" style="visibility: inherit;" fill="rgb(0, 0, 0)" stroke="rgb(204, 204, 204)" stroke-width="1px"></line></g><g transform="translate(41.5625, 0)"><text x="0" y="177" dx="0em" dy="0.3em" style="text-anchor: end; visibility: hidden; font-family: Roboto, sans-serif; font-size: 12px; font-weight: 200;" fill="rgb(255, 255, 255)" stroke="none" stroke-width="1px">-0.5</text><text x="0" y="164.35714285714286" dx="0em" dy="0.3em" style="text-anchor: end; visibility: inherit; font-family: Roboto, sans-serif; font-size: 12px; font-weight: 200;" fill="rgb(255, 255, 255)" stroke="none" stroke-width="1px">0</text><text x="0" y="151.71428571428572" dx="0em" dy="0.3em" style="text-anchor: end; visibility: hidden; font-family: Roboto, sans-serif; font-size: 12px; font-weight: 200;" fill="rgb(255, 255, 255)" stroke="none" stroke-width="1px">0.5</text><text x="0" y="139.07142857142856" dx="0em" dy="0.3em" style="text-anchor: end; visibility: inherit; font-family: Roboto, sans-serif; font-size: 12px; font-weight: 200;" fill="rgb(255, 255, 255)" stroke="none" stroke-width="1px">1</text><text x="0" y="126.42857142857143" dx="0em" dy="0.3em" style="text-anchor: end; visibility: hidden; font-family: Roboto, sans-serif; font-size: 12px; font-weight: 200;" fill="rgb(255, 255, 255)" stroke="none" stroke-width="1px">1.5</text><text x="0" y="113.78571428571428" dx="0em" dy="0.3em" style="text-anchor: end; visibility: inherit; font-family: Roboto, sans-serif; font-size: 12px; font-weight: 200;" fill="rgb(255, 255, 255)" stroke="none" stroke-width="1px">2</text><text x="0" y="101.14285714285714" dx="0em" dy="0.3em" style="text-anchor: end; visibility: hidden; font-family: Roboto, sans-serif; font-size: 12px; font-weight: 200;" fill="rgb(255, 255, 255)" stroke="none" stroke-width="1px">2.5</text><text x="0" y="88.5" dx="0em" dy="0.3em" style="text-anchor: end; visibility: inherit; font-family: Roboto, sans-serif; font-size: 12px; font-weight: 200;" fill="rgb(255, 255, 255)" stroke="none" stroke-width="1px">3</text><text x="0" y="75.85714285714286" dx="0em" dy="0.3em" style="text-anchor: end; visibility: hidden; font-family: Roboto, sans-serif; font-size: 12px; font-weight: 200;" fill="rgb(255, 255, 255)" stroke="none" stroke-width="1px">3.5</text><text x="0" y="63.21428571428571" dx="0em" dy="0.3em" style="text-anchor: end; visibility: inherit; font-family: Roboto, sans-serif; font-size: 12px; font-weight: 200;" fill="rgb(255, 255, 255)" stroke="none" stroke-width="1px">4</text><text x="0" y="50.57142857142857" dx="0em" dy="0.3em" style="text-anchor: end; visibility: hidden; font-family: Roboto, sans-serif; font-size: 12px; font-weight: 200;" fill="rgb(255, 255, 255)" stroke="none" stroke-width="1px">4.5</text><text x="0" y="37.92857142857143" dx="0em" dy="0.3em" style="text-anchor: end; visibility: inherit; font-family: Roboto, sans-serif; font-size: 12px; font-weight: 200;" fill="rgb(255, 255, 255)" stroke="none" stroke-width="1px">5</text><text x="0" y="25.285714285714295" dx="0em" dy="0.3em" style="text-anchor: end; visibility: hidden; font-family: Roboto, sans-serif; font-size: 12px; font-weight: 200;" fill="rgb(255, 255, 255)" stroke="none" stroke-width="1px">5.5</text><text x="0" y="12.642857142857137" dx="0em" dy="0.3em" style="text-anchor: end; visibility: inherit; font-family: Roboto, sans-serif; font-size: 12px; font-weight: 200;" fill="rgb(255, 255, 255)" stroke="none" stroke-width="1px">6</text><text x="0" y="0" dx="0em" dy="0.3em" style="text-anchor: end; visibility: hidden; font-family: Roboto, sans-serif; font-size: 12px; font-weight: 200;" fill="rgb(255, 255, 255)" stroke="none" stroke-width="1px">6.5</text></g><line x1="51.5625" y1="0" x2="51.5625" y2="177" fill="rgb(0, 0, 0)" stroke="rgb(204, 204, 204)" stroke-width="1px"></line></g></g><g transform="translate(51, 0)" clip-path="url(#clip_0)"><clipPath id="clip_0"><rect width="278" height="177"></rect></clipPath><g><g><g><line x1="0" y1="0" x2="0" y2="177" fill="rgb(0, 0, 0)" stroke="rgb(189, 189, 189)" stroke-width="1px" opacity="0.25"></line><line x1="27.84375" y1="0" x2="27.84375" y2="177" fill="rgb(0, 0, 0)" stroke="rgb(189, 189, 189)" stroke-width="1px" opacity="0.25"></line><line x1="55.6875" y1="0" x2="55.6875" y2="177" fill="rgb(0, 0, 0)" stroke="rgb(189, 189, 189)" stroke-width="1px" opacity="0.25"></line><line x1="83.53125" y1="0" x2="83.53125" y2="177" fill="rgb(0, 0, 0)" stroke="rgb(189, 189, 189)" stroke-width="1px" opacity="0.25"></line><line x1="111.375" y1="0" x2="111.375" y2="177" fill="rgb(0, 0, 0)" stroke="rgb(189, 189, 189)" stroke-width="1px" opacity="0.25"></line><line x1="139.21875" y1="0" x2="139.21875" y2="177" fill="rgb(0, 0, 0)" stroke="rgb(189, 189, 189)" stroke-width="1px" opacity="0.25"></line><line x1="167.0625" y1="0" x2="167.0625" y2="177" fill="rgb(0, 0, 0)" stroke="rgb(189, 189, 189)" stroke-width="1px" opacity="0.25"></line><line x1="194.90625" y1="0" x2="194.90625" y2="177" fill="rgb(0, 0, 0)" stroke="rgb(189, 189, 189)" stroke-width="1px" opacity="0.25"></line><line x1="222.75" y1="0" x2="222.75" y2="177" fill="rgb(0, 0, 0)" stroke="rgb(189, 189, 189)" stroke-width="1px" opacity="0.25"></line><line x1="250.59375" y1="0" x2="250.59375" y2="177" fill="rgb(0, 0, 0)" stroke="rgb(189, 189, 189)" stroke-width="1px" opacity="0.25"></line><line x1="278.4375" y1="0" x2="278.4375" y2="177" fill="rgb(0, 0, 0)" stroke="rgb(189, 189, 189)" stroke-width="1px" opacity="0.25"></line></g><g><line x1="0" y1="177" x2="278.4375" y2="177" fill="rgb(0, 0, 0)" stroke="rgb(189, 189, 189)" stroke-width="1px" opacity="0.25"></line><line x1="0" y1="164.35714285714286" x2="278.4375" y2="164.35714285714286" fill="rgb(0, 0, 0)" stroke="rgb(189, 189, 189)" stroke-width="1px" opacity="0.25"></line><line x1="0" y1="151.71428571428572" x2="278.4375" y2="151.71428571428572" fill="rgb(0, 0, 0)" stroke="rgb(189, 189, 189)" stroke-width="1px" opacity="0.25"></line><line x1="0" y1="139.07142857142856" x2="278.4375" y2="139.07142857142856" fill="rgb(0, 0, 0)" stroke="rgb(189, 189, 189)" stroke-width="1px" opacity="0.25"></line><line x1="0" y1="126.42857142857143" x2="278.4375" y2="126.42857142857143" fill="rgb(0, 0, 0)" stroke="rgb(189, 189, 189)" stroke-width="1px" opacity="0.25"></line><line x1="0" y1="113.78571428571428" x2="278.4375" y2="113.78571428571428" fill="rgb(0, 0, 0)" stroke="rgb(189, 189, 189)" stroke-width="1px" opacity="0.25"></line><line x1="0" y1="101.14285714285714" x2="278.4375" y2="101.14285714285714" fill="rgb(0, 0, 0)" stroke="rgb(189, 189, 189)" stroke-width="1px" opacity="0.25"></line><line x1="0" y1="88.5" x2="278.4375" y2="88.5" fill="rgb(0, 0, 0)" stroke="rgb(189, 189, 189)" stroke-width="1px" opacity="0.25"></line><line x1="0" y1="75.85714285714286" x2="278.4375" y2="75.85714285714286" fill="rgb(0, 0, 0)" stroke="rgb(189, 189, 189)" stroke-width="1px" opacity="0.25"></line><line x1="0" y1="63.21428571428571" x2="278.4375" y2="63.21428571428571" fill="rgb(0, 0, 0)" stroke="rgb(189, 189, 189)" stroke-width="1px" opacity="0.25"></line><line x1="0" y1="50.57142857142857" x2="278.4375" y2="50.57142857142857" fill="rgb(0, 0, 0)" stroke="rgb(189, 189, 189)" stroke-width="1px" opacity="0.25"></line><line x1="0" y1="37.92857142857143" x2="278.4375" y2="37.92857142857143" fill="rgb(0, 0, 0)" stroke="rgb(189, 189, 189)" stroke-width="1px" opacity="0.25"></line><line x1="0" y1="25.285714285714295" x2="278.4375" y2="25.285714285714295" fill="rgb(0, 0, 0)" stroke="rgb(189, 189, 189)" stroke-width="1px" opacity="0.25"></line><line x1="0" y1="12.642857142857137" x2="278.4375" y2="12.642857142857137" fill="rgb(0, 0, 0)" stroke="rgb(189, 189, 189)" stroke-width="1px" opacity="0.25"></line><line x1="0" y1="0" x2="278.4375" y2="0" fill="rgb(0, 0, 0)" stroke="rgb(189, 189, 189)" stroke-width="1px" opacity="0.25"></line></g></g></g><g><g><line x1="0" y1="164.35714285714286" x2="278.4375" y2="164.35714285714286" fill="rgb(0, 0, 0)" stroke="rgb(153, 153, 153)" stroke-width="1.5px"></line></g></g><g><g><line x1="27.84375" y1="0" x2="27.84375" y2="177" fill="rgb(0, 0, 0)" stroke="rgb(153, 153, 153)" stroke-width="1.5px"></line></g></g><g><g><g><g><g><path stroke="rgb(0, 153, 136)" stroke-width="2px" d="M27.84375,32.05025584357127L30.628125,34.28671735525131L33.4125,36.13994639121412L36.196875,38.062584680419036L38.98125,42.535587914838345L41.765625,46.32323464354764L44.550000000000004,49.38535124608199L47.334375,50.09301858572296L50.11875,50.70003853857298L52.903125,50.24664504025656L55.6875,50.74663690652589L58.471875,50.01476296624324L61.25625,49.892458575737855L64.040625,47.810621107360205L66.825,45.970408061909104L69.609375,44.25943969017373L72.39375,42.967821617368166L75.17812500000001,41.06984306480251L77.9625,38.66550947016087L80.74687499999999,36.23679677517219L83.53125,33.705752454603115L86.315625,31.513185764721882L89.10000000000001,28.947861352409618L91.884375,25.683975584496764L94.66875,22.537556586569025L97.453125,19.21446657463429L100.2375,16.864794330685136L103.021875,15.382384212285098L105.80625,14.151407253200619L108.590625,12.653581322207891L111.375,11.678308479067395L114.159375,10.339248654924011L116.94375,9.57224476964457L119.72812499999999,9.039308798726989L122.5125,7.793643508249565L125.296875,6.82029783720237L128.08125,6.195913396071683L130.865625,6.132266038636095L133.65,5.946647394810534L136.434375,6.148704706513299L139.21875,5.180969425871398L142.003125,4.866550530711594L144.7875,3.672606273718373L147.571875,3.145990609145371L150.35625000000002,4.347579798918126L153.140625,4.212865026733679L155.925,3.410761896477213L158.709375,3.544550633939485L161.49374999999998,4.217800228569608" style="fill: none;" fill="none"></path></g><g><path stroke="rgb(238, 51, 119)" stroke-width="2px" d="M27.84375,30.940610545022157L30.628125,33.96160938058581L33.4125,37.24236944604546L36.196875,41.286570640421694L38.98125,46.19803392547937L41.765625,51.508202002286986L44.550000000000004,56.621730858057774L47.334375,61.33490867735349L50.11875,66.06621890122537L52.903125,70.55051553040624L55.6875,74.53247536887997L58.471875,78.79837357454109L61.25625,83.22149453893034L64.040625,87.5700177888846L66.825,92.31733909510334L69.609375,97.00257026035489L72.39375,101.97942285921987L75.17812500000001,106.67045712117381L77.9625,112.46258401061456L80.74687499999999,117.90768357395442L83.53125,123.00057179362246L86.315625,128.21120187118814L89.10000000000001,133.4072683699912L91.884375,138.22785837043904L94.66875,142.37706946968478L97.453125,146.1907141680623L100.2375,149.4330231125762L103.021875,152.26437394469966L105.80625,154.75562276291527L108.590625,156.59829529723734L111.375,158.18675007450165L114.159375,159.41524374018104L116.94375,160.1961859217757L119.72812499999999,160.93418446177705L122.5125,161.45192987570928L125.296875,161.96456460370172L128.08125,162.37241989391967L130.865625,162.8141916177545L133.65,163.1262912277007L136.434375,163.33622434723227L139.21875,163.47720202456435L142.003125,163.60102729052187L144.7875,163.47781878267645L147.571875,163.4152833688444L150.35625000000002,163.52979123627458L153.140625,163.72524123794184L155.925,163.83502986971754L158.709375,163.84561665631603L161.49374999999998,163.89094985431143" style="fill: none;" fill="none"></path></g><g><path stroke="rgb(204, 51, 17)" stroke-width="2px" d="M27.84375,32.067690508706235L30.628125,34.746137661593295L33.4125,38.2459729350343L36.196875,40.44578711475644L38.98125,43.31708658028728L41.765625,47.57080372587676L44.550000000000004,48.56963413337042L47.334375,52.99748311066137L50.11875,57.832547644125206L52.903125,58.96800645541464L55.6875,60.490518710774204L58.471875,62.18048338039915L61.25625,64.60985137809095L64.040625,65.79229015794223L66.825,67.03860788691873L69.609375,68.1868877986803L72.39375,68.93050814275362L75.17812500000001,68.7901663791395L77.9625,69.00067282520891L80.74687499999999,70.2598941889916L83.53125,72.00946293016248L86.315625,72.34351456493698L89.10000000000001,72.45472139436548L91.884375,73.10024479493508L94.66875,68.93740018186239L97.453125,71.47763813627772L100.2375,72.26570897009216L103.021875,73.39018341806063L105.80625,73.2619660538127L108.590625,74.13009118208709L111.375,71.24948904297261L114.159375,70.39822918185669L116.94375,71.98395451391703L119.72812499999999,71.72415304409857L122.5125,71.1019033066113L125.296875,71.46398286087475L128.08125,69.10551803052496L130.865625,70.36113324391502L133.65,71.63077101853536L136.434375,74.33446430519125L139.21875,75.97844587482113L142.003125,77.1617163144592L144.7875,77.70395372322365L147.571875,78.37523320250403L150.35625000000002,78.98143666523085L153.140625,78.90258591750343L155.925,78.9034896728427L158.709375,78.91994015369467L161.49374999999998,79.19676579063274L164.278125,79.1411611992763L167.0625,79.16973611721433L169.84687499999998,79.1788509939937L172.63125,79.13690872348877L175.415625,79.0961462084759L178.20000000000002,78.70077162444704L180.984375,78.72455080425807L183.76875,78.62901368186513L186.55312500000002,78.27519840948874L189.3375,78.27354315065627L192.121875,78.54623565503786L194.90625,78.72713631391679L197.69062499999998,79.06073339837032L200.475,79.0631468571941L203.259375,79.10123425504173L206.04375,78.71513407610503L208.828125,78.62974429835467L211.6125,78.60059916374267L214.396875,78.67416781679246L217.18125,78.59894063257164L219.96562500000002,78.52116797930928L222.75,78.43364987881569L225.534375,78.44552429640387L228.31875,78.19414326196795L231.10312499999998,78.18474281219177L233.8875,78.20511708831167L236.671875,77.9124327516791L239.45624999999998,77.5346668457445L242.240625,77.8294581214717L245.025,77.66724432435134L247.80937500000002,77.39772521639338L250.59375,76.88666453897213L253.378125,77.07254174826382L256.1625,77.40101752310555L258.94687500000003,77.30809915696462" style="fill: none;" fill="none"></path></g><g><path stroke="rgb(0, 119, 187)" stroke-width="2px" d="M27.84375,29.73435115814209L30.628125,35.458491734095986L33.4125,41.00910751465111L36.196875,46.45723998947306L38.98125,52.072720963879064L41.765625,57.21858091051268L44.550000000000004,62.46368767511062L47.334375,67.5119682617471L50.11875,72.31278051248474L52.903125,77.07711658380403L55.6875,81.51867198398323L58.471875,85.86401091838486L61.25625,89.79028300408089L64.040625,93.58240172775837L66.825,97.28975236060913L69.609375,101.27341975541529L72.39375,104.84610461310793L75.17812500000001,108.32365714678883L77.9625,111.82599329751793L80.74687499999999,115.21698245430532L83.53125,118.43813124486392L86.315625,121.72502530831026L89.10000000000001,124.74186940248082L91.884375,127.69251624727706L94.66875,130.6688121807143L97.453125,133.52351559613055L100.2375,136.2512627675095L103.021875,139.2525886407235L105.80625,141.28954200163614L108.590625,143.40221819368497L111.375,145.2955195823291L114.159375,147.09275037417254L116.94375,149.19885749365338L119.72812499999999,150.7581661851797L122.5125,152.18175772475536L125.296875,153.576755905517L128.08125,154.58882579157466L130.865625,155.6652778449588L133.65,156.75593424035736L136.434375,158.238907372682L139.21875,159.6246086055171L142.003125,160.48818211945232L144.7875,161.07818800470355L147.571875,161.47637849484926L150.35625000000002,161.76612995444083L153.140625,161.95674195175712L155.925,162.08557880691382L158.709375,162.20756727193515L161.49374999999998,162.29656812731236L164.278125,162.41881009705392L167.0625,162.50338170815638L169.84687499999998,162.48289469329276L172.63125,162.53611684069838L175.415625,162.6100448689978L178.20000000000002,162.64747627466787L180.984375,162.63546359899135L183.76875,162.6449797379438L186.55312500000002,162.68473630200324L189.3375,162.702608905395L192.121875,162.7181438803776L194.90625,162.7461959775067L197.69062499999998,162.74322341246634L200.475,162.80467018765435L203.259375,162.85977633976557L206.04375,162.89690469080665L208.828125,162.94495808066745L211.6125,162.9656697625541L214.396875,163.01466785820352L217.18125,162.9956725960665L219.96562500000002,163.01579600363843L222.75,163.02922787370775L225.534375,163.05733719976243L228.31875,163.07639915928712L231.10312499999998,163.08893560962872L233.8875,163.1267455760317L236.671875,163.12636788875494L239.45624999999998,163.14286155431137L242.240625,163.17966234471172L245.025,163.22472879269327L247.80937500000002,163.24042358215388L250.59375,163.24467998786494L253.378125,163.2680326724104L256.1625,163.3009162757513L258.94687500000003,163.30966544722676" style="fill: none;" fill="none"></path></g></g></g></g><g opacity="0.2"><g><g><g><path stroke="rgb(0, 153, 136)" stroke-width="2px" d="M27.84375,32.05025584357125L30.628125,35.62859426225934L33.4125,37.919046265738345L36.196875,40.32360730852399L38.98125,48.37554093769619L41.765625,51.562913622174946L44.550000000000004,53.76422698157174L47.334375,51.12480436052594L50.11875,51.59527506147113L52.903125,49.57340853554862L55.6875,51.49208981650216L58.471875,48.92093488148281L61.25625,49.709401335035054L64.040625,44.69194344111851L66.825,43.21225159508842L69.609375,41.694193840026855L72.39375,41.030941077641074L75.17812500000001,38.22335713250297L77.9625,35.059375354221885L80.74687499999999,32.5939497266497L83.53125,29.90932478223529L86.315625,28.224407877240864L89.10000000000001,25.09992538179669L91.884375,20.788185596466064L94.66875,17.817950453077046L97.453125,14.229845728193013L100.2375,13.340291976928711L103.021875,13.158771310533794L105.80625,12.304942948477601L108.590625,10.406843253544393L111.375,10.21539953776768L114.159375,8.330659185137065L116.94375,8.421739033290324L119.72812499999999,8.239904880523682L122.5125,5.925145626068115L125.296875,5.360279355730326L128.08125,5.25933674403599L130.865625,6.036795003073547L133.65,5.668219430106018L136.434375,6.451790673392151L139.21875,3.7293665068490194L142.003125,4.394922188350138L144.7875,1.8816898890903935L147.571875,2.3560671125139567L150.35625000000002,6.149963583265035L153.140625,4.010792868477966L155.925,2.207607201167521L158.709375,3.7452337401253866L161.49374999999998,5.2276746204921265" style="fill: none;" fill="none"></path></g><g><path stroke="rgb(238, 51, 119)" stroke-width="2px" d="M27.84375,30.940610545022157L30.628125,35.77420868192401L33.4125,40.39189910888672L36.196875,46.0425512450082L38.98125,52.61044039045062L41.765625,58.85407611301967L44.550000000000004,63.934158938271665L47.334375,68.20676718439374L50.11875,73.04398247173854L52.903125,77.20917340687343L55.6875,80.46929904392788L58.471875,85.1740060533796L61.25625,89.84173372813633L64.040625,94.08428345407759L66.825,99.43274075644356L69.609375,104.02711262021745L72.39375,109.44259572029114L75.17812500000001,113.7058174610138L77.9625,121.14989197254181L80.74687499999999,126.07483521529606L83.53125,130.63962481703078L86.315625,136.02697552953447L89.10000000000001,141.20126553092683L91.884375,145.45868626662661L94.66875,148.6008566277368L97.453125,151.91116495217597L100.2375,154.2964782331671L103.021875,156.5113958460944L105.80625,158.49249369544643L108.590625,159.36230308030335L111.375,160.5694317136492L114.159375,161.25798399427106L116.94375,161.36759910093886L119.72812499999999,162.04118221891778L122.5125,162.2285479743566L125.296875,162.73351668247153L128.08125,162.98420282293645L130.865625,163.47684919940573L133.65,163.59444064088166L136.434375,163.65112402582807L139.21875,163.68866854027976L142.003125,163.78676518930922L144.7875,163.29300602099727L147.571875,163.3214802481234L150.35625000000002,163.7015530373901L153.140625,164.0184162404122L155.925,163.9997128173709L158.709375,163.86149683621315L161.49374999999998,163.95894965130302" style="fill: none;" fill="none"></path></g><g><path stroke="rgb(204, 51, 17)" stroke-width="2px" d="M27.84375,32.067690508706235L30.628125,36.35320595332554L33.4125,41.60581479753766L36.196875,43.03276859010968L38.98125,47.06585516248431L41.765625,53.45522587639945L44.550000000000004,49.997977597372866L47.334375,59.453329426901675L50.11875,64.9633286680494L52.903125,60.65403045926776L55.6875,62.760478019714355L58.471875,64.70623367173332L61.25625,68.24597106661115L64.040625,67.56363180705479L66.825,68.90661948067802L69.609375,69.90849781036377L72.39375,70.04562398365566L75.17812500000001,68.57968936647687L77.9625,69.31640042577472L80.74687499999999,72.14861113684518L83.53125,74.63372009141105L86.315625,72.84458102498736L89.10000000000001,72.6215294429234L91.884375,74.06852224894932L94.66875,62.69316284997123L97.453125,75.28798423494611L100.2375,73.4478132043566L103.021875,75.07689336368016L105.80625,73.06964012554714L108.590625,75.4322783946991L111.375,66.92858678953988L114.159375,69.12133955955505L116.94375,74.36254232270377L119.72812499999999,71.33445085797992L122.5125,70.16852872712272L125.296875,72.00710218293327L128.08125,65.5678208214896L130.865625,72.24455605234418L133.65,73.53522767339435L136.434375,78.39000422613961L139.21875,78.44441822596959L142.003125,78.93662197249276L144.7875,78.51730983597892L147.571875,79.38215242113385L150.35625000000002,79.89074185916355L153.140625,78.7843097959246L155.925,78.90484530585152L158.709375,78.94461587497166L161.49374999999998,79.61200424603054L164.278125,79.05775431224278L167.0625,79.21259849412101L169.84687499999998,79.19252330916268L172.63125,79.07399531773159L175.415625,79.03500243595668L178.20000000000002,78.10770974840436L180.984375,78.76021957397461L183.76875,78.48570799827576L186.55312500000002,77.74447550092425L189.3375,78.27106026240757L192.121875,78.95527441161019L194.90625,78.99848730223519L197.69062499999998,79.56112902505058L200.475,79.06676704542977L203.259375,79.15836535181317L206.04375,78.13598380770001L208.828125,78.50165963172913L211.6125,78.55688146182469L214.396875,78.7845207963671L217.18125,78.48609985624041L219.96562500000002,78.40450899941581L222.75,78.3023727280753L225.534375,78.46333592278617L228.31875,77.81707171031407L231.10312499999998,78.17064213752747L233.8875,78.23567850249154L236.671875,77.47340624673026L239.45624999999998,76.96801798684257L242.240625,78.27164503506252L245.025,77.42392362867083L247.80937500000002,76.99344655445644L250.59375,76.12007352284023L253.378125,77.35135756220136L256.1625,77.89373118536813L258.94687500000003,77.16872160775321" style="fill: none;" fill="none"></path></g><g><path stroke="rgb(0, 119, 187)" stroke-width="2px" d="M27.84375,29.73435115814209L30.628125,38.892976079668315L33.4125,46.33769866398403L36.196875,52.86424377986363L38.98125,59.40429292406354L41.765625,64.33715772628784L44.550000000000004,69.96427427019391L47.334375,74.87240982055664L50.11875,79.39304607255119L52.903125,84.15160039493016L55.6875,88.14072050367083L58.471875,92.3583721773965L61.25625,95.66687117304122L64.040625,99.26315065792629L66.825,102.84642045838493L69.609375,107.24611125673567L72.39375,110.20362005914961L75.17812500000001,113.53910299709865L77.9625,117.07896397794997L80.74687499999999,120.30315623964583L83.53125,123.26967777524675L86.315625,126.65525824683053L89.10000000000001,129.26707598141263L91.884375,132.11845156124662L94.66875,135.13323492663247L97.453125,137.80555854524886L100.2375,140.34287654502052L103.021875,143.7545728428023L105.80625,144.3449701666832L108.590625,146.57123131411416L111.375,148.13547103745597L114.159375,149.78859620434898L116.94375,152.35801792144775L119.72812499999999,153.09712911077906L122.5125,154.31714497293746L125.296875,155.66925314068794L128.08125,156.10693060500282L130.865625,157.27995591504234L133.65,158.39191882738044L136.434375,160.46336706621307L139.21875,161.70316045199124L142.003125,161.78354238931624L144.7875,161.9631968321545L147.571875,162.07366422989537L150.35625000000002,162.2007571437529L153.140625,162.24265994770187L155.925,162.2788340896368L158.709375,162.39054996946027L161.49374999999998,162.43006941037518L164.278125,162.6021730516638L167.0625,162.630239124809L169.84687499999998,162.45216417099746L172.63125,162.61595006180661L175.415625,162.72093691144673L178.20000000000002,162.70362338317292L180.984375,162.61744458547662L183.76875,162.65925394637244L186.55312500000002,162.74437114809243L189.3375,162.72941781048266L192.121875,162.74144634285142L194.90625,162.78827412320035L197.69062499999998,162.73876456490586L200.475,162.8968403504363L203.259375,162.94243556793245L206.04375,162.9525972173682L208.828125,163.01703816545862L211.6125,162.9967372853841L214.396875,163.0881650016776L217.18125,162.967179702861L219.96562500000002,163.04598111499635L222.75,163.04937567881177L225.534375,163.09950118884444L228.31875,163.10499209857414L231.10312499999998,163.10774028514115L233.8875,163.18346052563618L236.671875,163.1258013578398L239.45624999999998,163.167602052646L242.240625,163.23486353031228L245.025,163.2923284646656L247.80937500000002,163.26396576634477L250.59375,163.25106459643158L253.378125,163.3030616992286L256.1625,163.3502416807626L258.94687500000003,163.32278920443994" style="fill: none;" fill="none"></path></g></g></g></g></g></g><g transform="translate(51, 177)" clip-path="url(#clip_1)"><clipPath id="clip_1"><rect width="278" height="23"></rect></clipPath><g><g><line x1="0" y1="0" x2="0" y2="5" style="visibility: inherit;" fill="rgb(0, 0, 0)" stroke="rgb(204, 204, 204)" stroke-width="1px"></line><line x1="27.84375" y1="0" x2="27.84375" y2="5" style="visibility: inherit;" fill="rgb(0, 0, 0)" stroke="rgb(204, 204, 204)" stroke-width="1px"></line><line x1="55.6875" y1="0" x2="55.6875" y2="5" style="visibility: inherit;" fill="rgb(0, 0, 0)" stroke="rgb(204, 204, 204)" stroke-width="1px"></line><line x1="83.53125" y1="0" x2="83.53125" y2="5" style="visibility: inherit;" fill="rgb(0, 0, 0)" stroke="rgb(204, 204, 204)" stroke-width="1px"></line><line x1="111.375" y1="0" x2="111.375" y2="5" style="visibility: inherit;" fill="rgb(0, 0, 0)" stroke="rgb(204, 204, 204)" stroke-width="1px"></line><line x1="139.21875" y1="0" x2="139.21875" y2="5" style="visibility: inherit;" fill="rgb(0, 0, 0)" stroke="rgb(204, 204, 204)" stroke-width="1px"></line><line x1="167.0625" y1="0" x2="167.0625" y2="5" style="visibility: inherit;" fill="rgb(0, 0, 0)" stroke="rgb(204, 204, 204)" stroke-width="1px"></line><line x1="194.90625" y1="0" x2="194.90625" y2="5" style="visibility: inherit;" fill="rgb(0, 0, 0)" stroke="rgb(204, 204, 204)" stroke-width="1px"></line><line x1="222.75" y1="0" x2="222.75" y2="5" style="visibility: inherit;" fill="rgb(0, 0, 0)" stroke="rgb(204, 204, 204)" stroke-width="1px"></line><line x1="250.59375" y1="0" x2="250.59375" y2="5" style="visibility: inherit;" fill="rgb(0, 0, 0)" stroke="rgb(204, 204, 204)" stroke-width="1px"></line><line x1="278.4375" y1="0" x2="278.4375" y2="5" style="visibility: inherit;" fill="rgb(0, 0, 0)" stroke="rgb(204, 204, 204)" stroke-width="1px"></line></g><g transform="translate(0, 8)"><text x="0" y="0" dx="0em" dy="0.95em" style="text-anchor: middle; visibility: hidden; font-family: Roboto, sans-serif; font-size: 12px; font-weight: 200;" fill="rgb(255, 255, 255)" stroke="none" stroke-width="1px">-10</text><text x="27.84375" y="0" dx="0em" dy="0.95em" style="text-anchor: middle; visibility: inherit; font-family: Roboto, sans-serif; font-size: 12px; font-weight: 200;" fill="rgb(255, 255, 255)" stroke="none" stroke-width="1px">0</text><text x="55.6875" y="0" dx="0em" dy="0.95em" style="text-anchor: middle; visibility: inherit; font-family: Roboto, sans-serif; font-size: 12px; font-weight: 200;" fill="rgb(255, 255, 255)" stroke="none" stroke-width="1px">10</text><text x="83.53125" y="0" dx="0em" dy="0.95em" style="text-anchor: middle; visibility: inherit; font-family: Roboto, sans-serif; font-size: 12px; font-weight: 200;" fill="rgb(255, 255, 255)" stroke="none" stroke-width="1px">20</text><text x="111.375" y="0" dx="0em" dy="0.95em" style="text-anchor: middle; visibility: inherit; font-family: Roboto, sans-serif; font-size: 12px; font-weight: 200;" fill="rgb(255, 255, 255)" stroke="none" stroke-width="1px">30</text><text x="139.21875" y="0" dx="0em" dy="0.95em" style="text-anchor: middle; visibility: inherit; font-family: Roboto, sans-serif; font-size: 12px; font-weight: 200;" fill="rgb(255, 255, 255)" stroke="none" stroke-width="1px">40</text><text x="167.0625" y="0" dx="0em" dy="0.95em" style="text-anchor: middle; visibility: inherit; font-family: Roboto, sans-serif; font-size: 12px; font-weight: 200;" fill="rgb(255, 255, 255)" stroke="none" stroke-width="1px">50</text><text x="194.90625" y="0" dx="0em" dy="0.95em" style="text-anchor: middle; visibility: inherit; font-family: Roboto, sans-serif; font-size: 12px; font-weight: 200;" fill="rgb(255, 255, 255)" stroke="none" stroke-width="1px">60</text><text x="222.75" y="0" dx="0em" dy="0.95em" style="text-anchor: middle; visibility: inherit; font-family: Roboto, sans-serif; font-size: 12px; font-weight: 200;" fill="rgb(255, 255, 255)" stroke="none" stroke-width="1px">70</text><text x="250.59375" y="0" dx="0em" dy="0.95em" style="text-anchor: middle; visibility: inherit; font-family: Roboto, sans-serif; font-size: 12px; font-weight: 200;" fill="rgb(255, 255, 255)" stroke="none" stroke-width="1px">80</text><text x="278.4375" y="0" dx="0em" dy="0.95em" style="text-anchor: middle; visibility: hidden; font-family: Roboto, sans-serif; font-size: 12px; font-weight: 200;" fill="rgb(255, 255, 255)" stroke="none" stroke-width="1px">90</text></g><line x1="0" y1="0" x2="278.4375" y2="0" fill="rgb(0, 0, 0)" stroke="rgb(204, 204, 204)" stroke-width="1px"></line></g></g></g></g></svg>